<svg width="40" height="40" viewBox="0 0 40 40" fill="none" xmlns="http://www.w3.org/2000/svg">
<path d="M0.886709 14.4672C-2.84483 5.87545 5.87545 -2.84483 14.4672 0.886712L15.8878 1.50368C18.5109 2.64294 21.4891 2.64293 24.1122 1.50367L25.5328 0.886709C34.1245 -2.84483 42.8448 5.87545 39.1133 14.4672L38.4963 15.8878C37.3571 18.5109 37.3571 21.4891 38.4963 24.1122L39.1133 25.5328C42.8448 34.1245 34.1245 42.8448 25.5328 39.1133L24.1122 38.4963C21.4891 37.3571 18.5109 37.3571 15.8878 38.4963L14.4672 39.1133C5.87545 42.8448 -2.84482 34.1245 0.886712 25.5328L1.50368 24.1122C2.64294 21.4891 2.64293 18.5109 1.50367 15.8878L0.886709 14.4672Z" fill="#2A638B"/>
</svg>
