<svg width="99" height="128" viewBox="0 0 99 128" fill="none" xmlns="http://www.w3.org/2000/svg">
<path d="M71.2465 132.853C72.1093 136.116 68.1561 144.879 66.0717 148.853L81.877 154.337C89.1246 152.262 110.569 115.987 110.957 110.805C111.75 100.229 100.289 96.1972 97.0538 93.3223C93.8187 90.4474 105.055 78.1848 105.571 70.3055C106.229 60.2525 89.9881 51.4715 88.2821 45.0187C86.576 38.5659 96.6633 27.9014 94.5012 20.657C90.5285 7.34596 78.3006 4.60753 63.0502 3.09333C50.8499 1.88196 47.1909 11.0091 49.6882 20.4225C53.0091 32.9409 62.6799 39.6987 63.4383 46.6859C64.3862 55.4199 53.6886 65.0405 53.7507 72.7644C53.8128 80.4883 65.5822 85.686 65.444 91.716C65.3057 97.7459 57.0113 108.967 57.4583 113.466C57.9053 117.965 70.1679 128.773 71.2465 132.853Z" fill="#5D865D"/>
<path d="M76.6965 157.561C79.1949 148.781 71.2596 128.15 70.5471 122.495C69.6565 115.425 85.1085 104.311 83.9705 97.1394C82.387 87.1615 70.8609 76.9598 69.1719 70.4352C67.4828 63.9106 69.4704 49.5721 74.0228 38.3363C78.5275 27.2184 74.4034 23.2153 69.1719 19.0181" stroke="#638963" stroke-width="2" stroke-linecap="round"/>
<path d="M103.837 155.731C102.562 158.788 104.727 168.12 105.968 172.404L91.0313 174.962C84.8936 171.618 71.4049 132.073 71.8621 126.904C72.7953 116.355 83.6352 114.447 86.9642 112.199C90.2932 109.952 82.1796 95.8672 82.9417 88.0216C83.9141 78.0118 99.7498 72.2892 102.271 66.2464C104.792 60.2036 97.4547 47.8981 100.505 41.1584C106.109 28.7745 117.432 28.2767 131.259 29.5263C142.32 30.5261 144.166 40.164 140.481 48.9778C135.581 60.6988 125.914 65.6109 124.155 72.3498C121.956 80.7733 129.998 92.1613 128.746 99.7501C127.493 107.339 116.197 110.339 115.386 116.297C114.574 122.255 120.227 134.786 119.131 139.133C118.035 143.479 105.43 151.911 103.837 155.731Z" fill="#699569"/>
<path d="M83.2142 164.167C88.002 156.413 100.87 142.966 101.721 137.33C102.785 130.285 96.9543 118.121 97.8078 110.909C98.9954 100.876 113.959 91.4664 114.107 84.7246C114.255 77.9827 106.996 60.2293 114.426 50.6823C121.779 41.2355 120.188 36.7271 116.297 31.2441" stroke="#638963" stroke-width="2" stroke-linecap="round"/>
<path d="M61.362 160.21C63.2187 163.02 62.2668 172.6 61.5587 177.038L78.2728 177.108C84.4748 172.792 93.2255 131.489 91.9425 126.456C89.324 116.184 77.1865 116.082 73.2072 114.408C69.2279 112.735 75.9619 97.4796 73.94 89.8512C71.3603 80.1183 53.1841 77.0691 49.5129 71.5118C45.8417 65.9545 51.9965 52.585 47.6414 46.4261C39.639 35.1093 27.1875 36.481 12.2638 39.992C0.324902 42.8008 -0.232412 52.6301 5.13112 60.7344C12.2638 71.5118 23.5743 74.7754 26.5183 81.146C30.1983 89.1093 23.133 101.688 25.6524 108.982C28.1718 116.276 40.9726 117.382 42.7626 123.137C44.5526 128.892 40.2729 142.207 42.1295 146.322C43.986 150.438 59.041 156.696 61.362 160.21Z" fill="#73A273"/>
<path d="M74.6962 171.346C73.7159 162.265 75.6053 143.671 72.8247 138.707C69.349 132.503 57.3175 126.569 53.5744 120.365C48.3666 111.734 54.3765 95.0097 50.366 89.615C46.3555 84.2202 29.7787 74.7793 29.7788 62.6411C29.779 50.6302 25.7683 48.0752 19.3516 46.187" stroke="#638963" stroke-width="2" stroke-linecap="round"/>
<path d="M73.165 140.066C75.9456 145.029 74.0562 163.623 75.0365 172.704L60.3315 174.323C64.9658 169.737 71.8817 159.595 62.4704 155.711C53.0591 151.826 50.7063 139.706 50.7063 134.132L48.5674 117.678C42.7744 115.699 31.5094 110.772 32.7928 106.888C34.0761 103.004 34.7535 87.8264 34.9317 80.7233C28.3367 77.4864 14.9327 69.0166 14.0772 61.0324C13.2216 53.0481 17.4638 48.7143 19.6918 47.5454C26.1086 49.4336 30.1192 51.9886 30.1191 63.9995C30.119 76.1377 46.6958 85.5786 50.7063 90.9734C54.7168 96.3681 48.7069 113.092 53.9147 121.724C57.6578 127.928 69.6893 133.862 73.165 140.066Z" fill="url(#paint0_linear_5177_5274)" style="mix-blend-mode:luminosity"/>
<path d="M52.0626 116.415C48.4696 106.983 57.3484 91.6137 54.3594 85.582" stroke="#638963" stroke-width="2" stroke-linecap="round"/>
<path d="M36.463 77.8246C28.442 71.3509 27.3725 60.2916 19.3516 57.0547" stroke="#638963" stroke-width="2" stroke-linecap="round"/>
<path d="M95.1859 149.507C91.2052 142.225 99.3329 131.023 96.1016 126.335" stroke="#638963" stroke-width="2" stroke-linecap="round"/>
<defs>
<linearGradient id="paint0_linear_5177_5274" x1="70.6464" y1="113.092" x2="44.3433" y2="126.926" gradientUnits="userSpaceOnUse">
<stop stop-color="#679267"/>
<stop offset="1" stop-color="#73A173" stop-opacity="0"/>
</linearGradient>
</defs>
</svg>
