<svg width="119" height="181" viewBox="0 0 119 181" fill="none" xmlns="http://www.w3.org/2000/svg">
<path fill-rule="evenodd" clip-rule="evenodd" d="M73.6042 96.3319C66.1333 92.9556 50.8897 84.5652 49.6829 78.0138C48.8651 73.5746 46.4181 59.122 44.2324 46.1073L61.9343 47.4117L42.9042 38.185C42.3758 35.0279 41.8939 32.1417 41.4936 29.7401L55.2861 0L80.5005 25.6454C80.5016 25.6501 80.5026 25.6548 80.5037 25.6596L71.1589 38.6885L82.6497 35.5001C83.8443 41.2154 85.1116 47.6855 86.1607 53.8274L74.7866 67.4438L87.2541 60.6815C88.322 67.9741 88.8565 74.0639 88.2588 76.7207C86.7071 83.617 77.8426 92.6683 73.6042 96.3319Z" fill="#5E735E"/>
<path fill-rule="evenodd" clip-rule="evenodd" d="M63.0021 92.2841C56.2483 93.4777 47.8299 94.9656 43.2349 93.9532C40.0061 93.2418 35.7511 89.855 31.3531 84.2634C31.2462 84.1275 31.1392 83.9902 31.0321 83.8516L42.7531 76.2897L27.4434 78.7468C27.3789 78.6465 27.3145 78.5459 27.2501 78.4447C22.7472 71.3731 18.3813 62.1469 15.0984 51.2702L15.9372 31.6912L34.6173 34.3535C37.95 37.8403 43.0812 42.3811 48.3378 47.0328L48.3378 47.0328L48.3385 47.0334C50.4415 48.8944 52.5646 50.7732 54.6005 52.6093L51.5519 69.2781L56.7676 54.5794C57.3381 55.1029 57.8979 55.6208 58.4445 56.1318L57.3345 67.1698L61.0564 58.6244C64.6838 62.1704 67.3583 65.2088 68.0371 67.1517C70.173 73.2645 69.6947 76.2986 68.8865 81.4248C68.4776 84.0185 67.9843 87.1478 67.7024 91.4825C66.2999 91.7012 64.704 91.9833 63.0023 92.284L63.0021 92.2841Z" fill="#658165"/>
<path fill-rule="evenodd" clip-rule="evenodd" d="M83.5507 106.676C78.6711 100.088 74.0859 79.3664 76.2235 73.057C76.7048 71.6365 77.4589 69.5905 78.3908 67.127L86.7172 85.3409L79.4573 64.3257C79.7492 63.5629 80.0523 62.7735 80.3644 61.962L86.7172 75.8586L81.1826 59.8376C81.4679 59.0978 81.7587 58.344 82.0538 57.5792L82.054 57.5788C82.316 56.8996 82.5814 56.2118 82.8492 55.5174L88.0103 66.8073L83.5141 53.7921C85.9274 47.5257 88.4657 40.8789 90.4469 35.3432L117.816 20.9042L117.816 50.2132C116.379 55.1341 114.905 61.9702 113.392 68.987C110.621 81.8384 107.72 95.2958 104.67 98.7024C100.484 103.379 91.404 105.143 85.5813 106.274L85.5812 106.274L85.5807 106.274C84.8468 106.417 84.1648 106.549 83.5507 106.676Z" fill="#658165"/>
<path d="M65.0665 36.6081L75.8896 117.157C76.0615 118.436 77.1535 119.391 78.4445 119.391C80.0567 119.391 81.2733 117.928 80.979 116.343L66.1438 36.4358C66.0958 36.1773 65.8703 35.9897 65.6073 35.9897C65.2771 35.9897 65.0226 36.2808 65.0665 36.6081Z" fill="#73A173"/>
<path d="M24.0043 43.4081L75.827 102.6L72.9347 94.4435L24.9579 42.4419C24.7753 42.244 24.4967 42.1835 24.2511 42.2886C23.8219 42.4723 23.6937 43.0534 24.0043 43.4081Z" fill="#73A173"/>
<path d="M107.325 42.4429L76.4824 120.738L78.3644 121.788L108.266 42.9678L107.325 42.4429Z" fill="#73A173"/>
<path d="M117.514 124.452C117.648 119.001 113.663 114.32 108.26 113.584V113.584C96.6483 112.002 84.8838 111.883 73.2422 113.23L43.2325 116.701C40.5028 117.017 38.4432 119.328 38.4432 122.076V122.076C38.4432 126.192 39.0117 130.289 40.1327 134.249L46.4535 156.582C50.4742 170.788 63.4419 180.595 78.2062 180.595H114.176C115.261 180.595 116.149 179.73 116.176 178.645L117.514 124.452Z" fill="#926451"/>
<path d="M60.5751 119.366C59.4161 114.22 52.4631 110.879 50.0346 103.298C39.1257 106.905 32.9695 107.118 26.6442 112.825C25.2374 114.094 21.5649 127.161 20.9143 147.145C18.5564 169.976 28.0554 170.695 41.256 158.439C58.7494 144.033 62.0926 126.103 60.5751 119.366Z" fill="#658165"/>
<path d="M31.4524 159.116C31.1751 159.896 30.3175 160.304 29.5369 160.027C28.7562 159.75 28.3482 158.892 28.6255 158.112L31.4524 159.116ZM49.8656 102.797L51.3525 102.995L51.2791 103.299L49.8656 102.797ZM66.4328 112.692L66.6668 114.174L63.7035 114.642L63.4695 113.16L66.4328 112.692ZM28.6255 158.112L48.4522 102.295L51.2791 103.299L31.4524 159.116L28.6255 158.112ZM48.3788 102.599C48.5493 101.32 49.1792 99.3848 50.7033 98.1352C51.4992 97.4826 52.5149 97.0418 53.7399 96.9948C54.9438 96.9487 56.2534 97.2858 57.6665 98.0167L56.2883 100.681C55.2015 100.119 54.408 99.9714 53.8547 99.9926C53.3225 100.013 52.9265 100.192 52.6054 100.455C51.8954 101.037 51.4693 102.119 51.3525 102.995L48.3788 102.599ZM57.6665 98.0167C60.5572 99.5118 62.575 102.191 63.9367 104.898C65.3061 107.619 66.0899 110.52 66.4328 112.692L63.4695 113.16C63.1659 111.237 62.4627 108.643 61.2568 106.246C60.0432 103.834 58.3974 101.772 56.2883 100.681L57.6665 98.0167Z" fill="#73A173"/>
</svg>
