<svg width="153" height="108" viewBox="0 0 153 108" fill="none" xmlns="http://www.w3.org/2000/svg">
<path d="M30.9334 43.3902C31.6976 39.6701 34.972 37 38.7698 37H122.315C125.587 37 128.53 38.9928 129.744 42.0313L148.126 88.0313C150.226 93.2859 146.356 99 140.698 99H29.3202C24.2548 99 20.4646 94.352 21.4839 89.3902L30.9334 43.3902Z" fill="#A77B68"/>
<path d="M36.5827 34.0817C29.6646 47.2692 34.8474 60.0907 38.2434 61.8722C41.6393 63.6536 64.1003 59.0166 69.65 48.4374C75.1998 37.8582 63.9739 34.4927 59.4808 29.6431C54.9878 24.7936 45.1958 17.6628 36.5827 34.0817Z" fill="#8CB58B"/>
<path d="M138.904 53.9313C144.655 69.7877 137.769 83.064 134.009 84.4279C130.249 85.7918 107.242 76.6177 102.628 63.8977C98.0143 51.1776 110.158 49.4652 115.416 44.8986C120.674 40.3321 131.743 34.1898 138.904 53.9313Z" fill="#93BC92"/>
<path d="M13.1943 67.8962C5.2646 82.7831 8.99965 96.2534 12.0901 97.8995C15.1806 99.5457 37.2166 92.6238 43.5778 80.6814C49.9391 68.7389 39.4778 66.0342 35.6311 61.1527C31.7845 56.2711 23.067 49.3616 13.1943 67.8962Z" fill="#88AE87"/>
<path d="M56.2021 58.8961C48.2724 73.7831 52.0075 87.2533 55.0979 88.8995C58.1884 90.5457 80.2244 83.6237 86.5857 71.6813C92.9469 59.7389 82.4857 57.0342 78.639 52.1526C74.7923 47.2711 66.0748 40.3616 56.2021 58.8961Z" fill="#88AE87"/>
<path d="M114.669 29.6596C119.567 45.49 113.437 57.8071 110.138 58.8278C106.839 59.8486 86.7977 49.1129 82.8686 36.4136C78.9394 23.7143 89.5719 23.0275 94.2071 19.0224C98.8423 15.0173 108.571 9.95037 114.669 29.6596Z" fill="#88AE87"/>
<path d="M108.805 65.4164C105.297 81.9146 92.4298 89.538 88.5173 88.7061C84.6048 87.8741 69.9347 67.9174 72.749 54.6824C75.5633 41.4473 86.7745 46.4188 93.6523 45.3254C100.53 44.232 113.173 44.8756 108.805 65.4164Z" fill="#9ACA99"/>
<path d="M69.5018 16.2604C54.5133 23.9963 49.9742 37.2949 51.5978 40.4408C53.2215 43.5867 75.3658 50.5833 87.3897 44.3774C99.4137 38.1716 92.2935 29.8947 91.8766 23.6359C91.4597 17.3772 88.163 6.62895 69.5018 16.2604Z" fill="#9ACA99"/>
<path d="M131.915 15.4033C140.656 29.8287 136.5 44.1953 133.079 46.2683C129.658 48.3412 105.301 43.8438 98.2889 32.2716C91.2766 20.6995 102.851 16.6452 107.114 11.1385C111.378 5.63186 121.032 -2.55663 131.915 15.4033Z" fill="#9ACA99"/>
<path d="M117.01 31.5C115.676 25 111.21 11.8 104.01 11C96.8098 10.2 93.6764 15 93.0098 17.5V29C82.3431 29.3334 60.9098 30.8 60.5098 34" stroke="#638963" stroke-width="2" stroke-linecap="round"/>
<path d="M91.0098 81.5C92.1764 69.8333 93.8098 46.2 91.0098 45" stroke="#638963" stroke-width="2" stroke-linecap="round"/>
<path d="M18.0098 86.5C19.1764 74.8333 60.0098 64.5 62.5098 46.5" stroke="#638963" stroke-width="2" stroke-linecap="round"/>
<path d="M62.5098 46.5L69.0098 53L62.5098 76" stroke="#638963" stroke-width="2" stroke-linecap="round"/>
<path d="M125.509 67C120.008 49 95.8562 38.4337 93.5085 40.3749" stroke="#638963" stroke-width="2" stroke-linecap="round"/>
</svg>
