<svg width="106" height="164" viewBox="0 0 106 164" fill="none" xmlns="http://www.w3.org/2000/svg">
<path d="M52.6449 95.7977C53.2857 98.2001 50.3498 104.651 48.8018 107.576L60.5399 111.613C65.9225 110.086 81.8486 83.3824 82.137 79.5676C82.7257 71.7824 74.2139 68.8142 71.8113 66.6979C69.4087 64.5816 77.7538 55.5546 78.1366 49.7543C78.6251 42.354 66.5638 35.8901 65.2968 31.1399C64.0297 26.3898 71.5212 18.5392 69.9155 13.2064C66.9651 3.40758 57.8838 1.39172 46.5578 0.277062C37.497 -0.614668 34.7796 6.10412 36.6342 13.0337C39.1006 22.249 46.2828 27.2237 46.846 32.3672C47.55 38.7966 39.6052 45.8786 39.6514 51.5644C39.6975 57.2503 48.4383 61.0766 48.3356 65.5154C48.2329 69.9543 42.0729 78.2146 42.4049 81.5266C42.7369 84.8385 51.8439 92.7947 52.6449 95.7977Z" fill="#5D865D"/>
<path d="M57.2889 114.359C59.1444 107.895 53.251 92.7088 52.7219 88.5454C52.0605 83.3413 63.5363 75.1597 62.691 69.8804C61.5151 62.5353 52.955 55.0255 51.7006 50.2225C50.4462 45.4195 51.9223 34.8643 55.3032 26.5933C58.6487 18.409 55.5859 15.4622 51.7006 12.3724" stroke="#638963" stroke-width="2" stroke-linecap="round"/>
<path d="M77.1729 112.29C76.226 114.54 77.8338 121.41 78.756 124.564L67.6628 126.446C63.1044 123.985 53.0868 94.8741 53.4264 91.0692C54.1194 83.3041 62.1699 81.8991 64.6423 80.2446C67.1146 78.5901 61.0889 68.222 61.6549 62.4466C62.377 55.078 74.1377 50.8654 76.01 46.4171C77.8822 41.9688 72.4332 32.9102 74.6984 27.9489C78.8606 18.8327 87.2697 18.4662 97.5384 19.3861C105.754 20.1221 107.125 27.2169 104.388 33.7051C100.748 42.3333 93.5689 45.9493 92.2624 50.91C90.6293 57.1109 96.6025 65.494 95.672 71.0804C94.7416 76.6668 86.3529 78.8753 85.7501 83.2612C85.1473 87.6471 89.3455 96.8717 88.5316 100.071C87.7177 103.271 78.3566 109.478 77.1729 112.29Z" fill="#699569"/>
<path d="M62.0156 118.485C65.5713 112.778 75.1279 102.879 75.76 98.7298C76.55 93.5436 72.2199 84.5896 72.8538 79.2808C73.7357 71.8947 84.849 64.9681 84.9589 60.0051C85.0687 55.0422 79.6776 41.9734 85.1958 34.9455C90.6561 27.9914 89.4749 24.6726 86.585 20.6364" stroke="#638963" stroke-width="2" stroke-linecap="round"/>
<path d="M45.4386 115.913C46.8176 117.982 46.1106 125.034 45.5848 128.302L57.9978 128.352C62.6038 125.176 69.1028 94.7708 68.1499 91.0657C66.2052 83.5044 57.191 83.4294 54.2357 82.1975C51.2804 80.9657 56.2816 69.7355 54.7799 64.1199C52.8641 56.9552 39.3652 54.7105 36.6387 50.6196C33.9122 46.5287 38.4832 36.6869 35.2488 32.1531C29.3056 23.8224 20.0583 24.8322 8.97489 27.4167C0.108213 29.4844 -0.305687 36.7202 3.67765 42.6861C8.97489 50.6197 17.3749 53.0222 19.5613 57.7118C22.2943 63.5739 17.0472 72.8336 18.9182 78.203C20.7893 83.5723 30.296 84.3862 31.6254 88.6226C32.9548 92.8589 29.7764 102.661 31.1552 105.69C32.534 108.72 43.715 113.327 45.4386 115.913Z" fill="#73A273"/>
<path d="M55.1048 124.486C54.3767 117.801 55.7799 104.113 53.7149 100.459C51.1335 95.8924 42.1981 91.5239 39.4182 86.9569C35.5505 80.6029 40.0139 68.2919 37.0354 64.3206C34.057 60.3493 21.7459 53.3995 21.746 44.4641C21.7461 35.6225 18.7675 33.7416 14.002 32.3517" stroke="#638963" stroke-width="2" stroke-linecap="round"/>
<path style="mix-blend-mode:luminosity" d="M53.7982 101.055C55.8633 104.709 54.4601 118.396 55.1881 125.081L44.2671 126.273C47.7089 122.897 52.8451 115.431 45.8556 112.572C38.8662 109.712 37.1188 100.79 37.1188 96.6866L35.5303 84.5742C31.228 83.118 22.8619 79.4909 23.815 76.6316C24.7681 73.7723 25.2711 62.5997 25.4035 57.3708C20.5056 54.9881 10.5509 48.7531 9.91545 42.8756C9.28004 36.9981 12.4306 33.8078 14.0853 32.9474C18.8509 34.3373 21.8294 36.2182 21.8293 45.0598C21.8292 53.9952 34.1403 60.945 37.1188 64.9163C40.0973 68.8876 35.6339 81.1986 39.5016 87.5527C42.2815 92.1196 51.2169 96.4881 53.7982 101.055Z" fill="url(#paint0_linear_51314_69903)"/>
<path d="M38.2543 83.4295C35.5858 76.486 42.1799 65.1722 39.96 60.7321" stroke="#638963" stroke-width="2" stroke-linecap="round"/>
<path d="M27.3058 55.1866C21.3489 50.4211 20.5546 42.2799 14.5977 39.8971" stroke="#638963" stroke-width="2" stroke-linecap="round"/>
<path d="M70.1588 108.066C67.2025 102.705 73.2387 94.4593 70.8389 91.0087" stroke="#638963" stroke-width="2" stroke-linecap="round"/>
<path d="M32.1457 127.199C32.1073 126.068 33.0133 125.131 34.1445 125.131H85.1988C86.33 125.131 87.2361 126.068 87.1976 127.199L86.0117 162.068C85.9751 163.145 85.091 164 84.0129 164H35.3305C34.2524 164 33.3683 163.145 33.3316 162.068L32.1457 127.199Z" fill="#B97D63"/>
<path d="M32.0723 130.655C32.0723 129.551 32.9677 128.655 34.0723 128.655H84.9459C86.1703 128.655 87.1073 129.746 86.9231 130.956L86.1083 136.311C85.9748 137.188 85.2801 137.872 84.4016 137.992L34.3428 144.826C33.1419 144.99 32.0723 144.057 32.0723 142.845V130.655Z" fill="url(#paint1_linear_51314_69903)"/>
<path d="M27.9221 120.925C27.805 119.748 28.7294 118.727 29.9123 118.727H89.8295C91.0123 118.727 91.9368 119.748 91.8197 120.925L90.6767 132.413C90.5749 133.436 89.7144 134.215 88.6865 134.215H31.0553C30.0274 134.215 29.1669 133.436 29.0651 132.413L27.9221 120.925Z" fill="#C58469"/>
<defs>
<linearGradient id="paint0_linear_51314_69903" x1="51.9277" y1="81.1986" x2="32.4684" y2="91.5239" gradientUnits="userSpaceOnUse">
<stop stop-color="#679267"/>
<stop offset="1" stop-color="#73A173" stop-opacity="0"/>
</linearGradient>
<linearGradient id="paint1_linear_51314_69903" x1="59.6727" y1="128.655" x2="59.6727" y2="145.136" gradientUnits="userSpaceOnUse">
<stop stop-color="#A57059"/>
<stop offset="1" stop-color="#B97D63" stop-opacity="0"/>
</linearGradient>
</defs>
</svg>
